<svg viewBox="0 0 18 18" fill="#ffffff" xmlns="http://www.w3.org/2000/svg" class="shrink-0 select-none size-4 text-white"><path d="M9 1C4.589 1 1 4.589 1 9C1 13.411 4.589 17 9 17C13.411 17 17 13.411 17 9C17 4.589 13.411 1 9 1ZM11.53 9.53L8.53 12.53C8.384 12.676 8.192 12.75 8 12.75C7.808 12.75 7.616 12.677 7.47 12.53C7.177 12.237 7.177 11.762 7.47 11.469L9.94 8.999L7.47 6.529C7.177 6.236 7.177 5.761 7.47 5.468C7.763 5.175 8.238 5.175 8.531 5.468L11.531 8.468C11.824 8.761 11.824 9.236 11.531 9.529L11.53 9.53Z" fill="#ffffff"></path></svg>
