<svg xmlns="http://www.w3.org/2000/svg" width="122" height="25" viewBox="0 0 102 19" fill="#0052ff" class="max-md:h-[14px]"><g clip-path="url(#clip0_8659_7106)"><mask id="mask0_8659_7106" style="mask-type:luminance" maskUnits="userSpaceOnUse" x="0" y="0" width="102" height="19"><path d="M101.655 0.163651H0.890625V18.1637H101.655V0.163651Z" fill="white"></path></mask><g mask="url(#mask0_8659_7106)"><path class="fill-[#0052FF] dark:fill-[#578BFA]" d="M21.2276 5.18891C17.5671 5.18891 14.7069 7.96772 14.7069 11.6877C14.7069 15.4077 17.4948 18.1627 21.2276 18.1627C24.9605 18.1627 27.7969 15.3602 27.7969 11.6639C27.7969 7.99149 25.0089 5.18891 21.2276 5.18891ZM21.2523 15.4818C19.1678 15.4818 17.6402 13.8628 17.6402 11.6886C17.6402 9.48973 19.1431 7.87167 21.2276 7.87167C23.3369 7.87167 24.8635 9.51443 24.8635 11.6886C24.8635 13.8628 23.3369 15.4818 21.2523 15.4818ZM28.5963 8.01618H30.4146V17.9222H33.3232V5.43039H28.5963V8.01618ZM7.38668 7.87074C8.91421 7.87074 10.1261 8.81288 10.5862 10.2141H13.6651C13.1071 7.21858 10.6347 5.18891 7.41138 5.18891C3.75083 5.18891 0.890625 7.96772 0.890625 11.6886C0.890625 15.4095 3.67857 18.1637 7.41138 18.1637C10.5624 18.1637 13.0833 16.134 13.6413 13.1137H10.5862C10.1499 14.515 8.93797 15.4818 7.41048 15.4818C5.30122 15.4818 3.82308 13.8628 3.82308 11.6886C3.82401 9.48973 5.27835 7.87074 7.38668 7.87074ZM83.863 10.4803L81.73 10.1666C80.7122 10.0221 79.9849 9.68365 79.9849 8.88606C79.9849 8.01618 80.9307 7.5817 82.2149 7.5817C83.6209 7.5817 84.5181 8.18541 84.7118 9.176H87.5238C87.2082 6.66337 85.269 5.18981 82.288 5.18981C79.2092 5.18981 77.1732 6.76034 77.1732 8.983C77.1732 11.1087 78.5066 12.3417 81.1968 12.7277L83.3298 13.0414C84.3727 13.1859 84.9543 13.5976 84.9543 14.3705C84.9543 15.3611 83.9364 15.7718 82.5305 15.7718C80.8089 15.7718 79.8395 15.0711 79.6941 14.0083H76.8337C77.1009 16.4486 79.0154 18.1637 82.5057 18.1637C85.6816 18.1637 87.7898 16.7139 87.7898 14.225C87.7898 12.0024 86.2632 10.8425 83.863 10.4803ZM31.8689 0.284388C30.8024 0.284388 30.0023 1.05729 30.0023 2.12015C30.0023 3.18301 30.8016 3.95591 31.8689 3.95591C32.9354 3.95591 33.7358 3.18301 33.7358 2.12015C33.7358 1.05729 32.9354 0.284388 31.8689 0.284388ZM74.5553 9.70742C74.5553 7.00179 72.9072 5.18981 69.4166 5.18981C66.1201 5.18981 64.2779 6.85729 63.914 9.41838H66.7988C66.9442 8.42779 67.7198 7.6064 69.3682 7.6064C70.8473 7.6064 71.5744 8.25856 71.5744 9.05618C71.5744 10.0953 70.2407 10.3605 68.5926 10.5297C66.3625 10.7712 63.5993 11.5441 63.5993 14.4436C63.5993 16.691 65.2721 18.1399 67.9387 18.1399C70.023 18.1399 71.3319 17.27 71.987 15.8925C72.084 17.1246 73.0051 17.9222 74.2901 17.9222H75.9869V15.3373H74.5562V9.70742H74.5553ZM71.695 12.8484C71.695 14.5159 70.2407 15.748 68.4708 15.748C67.3798 15.748 66.4587 15.2888 66.4587 14.3229C66.4587 13.0908 67.9375 12.7524 69.2951 12.6079C70.6041 12.4872 71.3311 12.1972 71.695 11.6411V12.8484ZM56.2544 5.18891C54.6299 5.18891 53.2726 5.86577 52.3031 7.00089V0.163651H49.3944V17.9222H52.2545V16.2794C53.2239 17.463 54.6063 18.1637 56.2544 18.1637C59.7447 18.1637 62.3873 15.4095 62.3873 11.6886C62.3873 7.96772 59.6963 5.18891 56.2544 5.18891ZM55.8182 15.4818C53.7336 15.4818 52.2061 13.8628 52.2061 11.6886C52.2061 9.51443 53.7575 7.87167 55.8418 7.87167C57.9512 7.87167 59.4292 9.49066 59.4292 11.6886C59.4292 13.8628 57.9025 15.4818 55.8182 15.4818ZM42.4372 5.18891C40.5466 5.18891 39.3099 5.96182 38.5829 7.04935V5.43039H35.6978V17.9213H38.6065V11.1325C38.6065 9.22356 39.8184 7.87074 41.6122 7.87074C43.2851 7.87074 44.3269 9.05436 44.3269 10.7703V17.9222H47.2356V10.5535C47.2367 7.41158 45.613 5.18891 42.4372 5.18891ZM101.655 11.2779C101.655 7.70244 99.0376 5.18981 95.5225 5.18981C91.7898 5.18981 89.0504 7.99241 89.0504 11.6886C89.0504 15.5788 91.9836 18.1637 95.5712 18.1637C98.6014 18.1637 100.977 16.3755 101.582 13.839H98.5519C98.1157 14.9504 97.0492 15.5788 95.6187 15.5788C93.7518 15.5788 92.3458 14.4189 92.0311 12.3893H101.655V11.2779H101.655ZM92.2012 10.3111C92.6625 8.57139 93.9712 7.72624 95.4742 7.72624C97.1223 7.72624 98.3828 8.66834 98.6737 10.3111H92.2012Z"></path></g></g><defs><clipPath id="clip0_8659_7106"><rect width="100.969" height="18" fill="white" transform="translate(0.890625 0.163651)"></rect></clipPath></defs></svg>
