<svg xmlns="http://www.w3.org/2000/svg" width="100" height="30" viewBox="0 0 86 26" fill="#ffffff" class="max-md:h-[19px]"><g clip-path="url(#clip0_12517_107173)"><path d="M9.29504 4.72339V11.3878H3.02802V4.72339H0.0546875V20.6323H3.02882V14.1841H9.29423V20.6323H12.2692V4.72339H9.29504ZM21.7888 15.4903C21.7888 16.1279 21.5295 16.7395 21.068 17.1904C20.6065 17.6413 19.9805 17.8946 19.3278 17.8946C18.6751 17.8946 18.0492 17.6413 17.5876 17.1904C17.1261 16.7395 16.8668 16.1279 16.8668 15.4903V8.67565H14.0456V15.4903C14.0456 16.8576 14.6016 18.1689 15.5912 19.1357C16.5808 20.1025 17.923 20.6457 19.3226 20.6457C20.7221 20.6457 22.0644 20.1025 23.054 19.1357C24.0436 18.1689 24.5996 16.8576 24.5996 15.4903V8.67565H21.7888V15.4903ZM42.6931 9.37787C42.6931 7.9805 43.6389 7.53778 44.6748 7.53778C45.5103 7.53778 46.613 8.15901 47.335 8.91234L49.1823 6.78444C48.2599 5.56558 46.3893 4.72339 44.8575 4.72339C41.7964 4.72339 39.5829 6.47462 39.5829 9.37787C39.5829 14.7644 46.3216 13.0549 46.3216 16.0698C46.3216 16.9993 45.3976 17.8203 44.34 17.8203C42.6714 17.8203 42.1305 17.0237 41.3642 16.1807L39.3133 18.2638C40.6253 19.8365 42.2432 20.6354 44.1806 20.6354C47.0887 20.6354 49.4278 18.863 49.4278 16.0918C49.4278 10.1123 42.6883 11.9705 42.6883 9.37787M84.3825 18.0908C82.7156 18.0908 82.2415 17.3862 82.2415 16.3073V11.5301H84.8333V9.10972H82.2415V5.9163L79.3809 7.17055V16.901C79.3809 19.3898 81.1388 20.6441 83.5487 20.6441C83.927 20.6504 84.3053 20.6205 84.6771 20.556L85.375 18.0459C85.0603 18.0672 84.6989 18.0884 84.3825 18.0884M32.5279 8.75507C31.1306 8.75507 30.1551 9.15139 29.2117 10.0549V4.81854H26.3865V14.5246C26.3865 18.1576 29.0749 20.6472 32.0965 20.6472C35.4481 20.6472 38.3965 18.1136 38.3965 14.7023C38.3965 11.3335 35.6832 8.75743 32.5279 8.75743M32.5102 17.869C32.0891 17.869 31.6722 17.788 31.2832 17.6306C30.8942 17.4731 30.5407 17.2424 30.243 16.9515C29.9452 16.6606 29.7091 16.3153 29.5479 15.9353C29.3868 15.5552 29.3039 15.1479 29.3039 14.7365C29.3039 14.3252 29.3868 13.9178 29.5479 13.5378C29.7091 13.1577 29.9452 12.8124 30.243 12.5215C30.5407 12.2307 30.8942 11.9999 31.2832 11.8425C31.6722 11.6851 32.0891 11.6041 32.5102 11.6041C33.3606 11.6041 34.1761 11.9341 34.7774 12.5215C35.3788 13.109 35.7166 13.9057 35.7166 14.7365C35.7166 15.5673 35.3788 16.3641 34.7774 16.9515C34.1761 17.539 33.3606 17.869 32.5102 17.869ZM63.211 14.5576C63.211 11.1401 60.2691 8.61274 56.911 8.61274C53.8902 8.61274 51.201 11.1016 51.201 14.7354V24.4469H54.0262V19.2035C54.968 20.1054 55.9451 20.5033 57.3408 20.5033C60.4961 20.5033 63.211 17.9272 63.211 14.5576ZM60.5355 14.523C60.5355 15.3538 60.1977 16.1506 59.5964 16.738C58.9951 17.3255 58.1795 17.6555 57.3292 17.6555C56.4788 17.6555 55.6632 17.3255 55.0619 16.738C54.4606 16.1506 54.1228 15.3538 54.1228 14.523C54.1228 13.6923 54.4606 12.8955 55.0619 12.308C55.6632 11.7206 56.4788 11.3906 57.3292 11.3906C58.1795 11.3906 58.9951 11.7206 59.5964 12.308C60.1977 12.8955 60.5355 13.6923 60.5355 14.523Z" fill="var(--color-text-main)"></path><path d="M72.3397 8.47915V5.70565C72.7148 5.53436 73.0325 5.26249 73.2556 4.9217C73.4788 4.5809 73.5983 4.18519 73.6002 3.78064V3.71694C73.6002 2.5374 72.6214 1.58118 71.414 1.58118H71.3488C70.769 1.58118 70.213 1.8062 69.803 2.20673C69.393 2.60726 69.1627 3.1505 69.1627 3.71694V3.78064C69.1646 4.18519 69.2841 4.5809 69.5073 4.9217C69.7304 5.26249 70.0481 5.53436 70.4232 5.70565V8.47915C69.345 8.64044 68.3295 9.0772 67.4797 9.74519L59.6938 3.82074C59.7493 3.62494 59.7783 3.42363 59.7815 3.22153C59.7825 2.74555 59.6389 2.27999 59.369 1.88373C59.0991 1.48747 58.7149 1.17831 58.2651 0.995373C57.8154 0.812433 57.3201 0.763923 56.8421 0.855982C56.3641 0.94804 55.9248 1.17653 55.5797 1.51255C55.2346 1.84857 54.9993 2.27702 54.9035 2.74371C54.8078 3.2104 54.8558 3.69437 55.0416 4.13438C55.2274 4.5744 55.5425 4.9507 55.9473 5.2157C56.352 5.48069 56.8281 5.62246 57.3153 5.62308C57.7415 5.62112 58.1598 5.50995 58.5283 5.30068L66.195 11.1292C65.5063 12.1457 65.147 13.3413 65.1639 14.5602C65.1809 15.7792 65.5733 16.9648 66.29 17.9627L63.9582 20.2416C63.7697 20.1827 63.5733 20.1514 63.3754 20.1488C62.9755 20.1491 62.5846 20.2652 62.2523 20.4825C61.9199 20.6997 61.6609 21.0084 61.508 21.3694C61.3551 21.7304 61.3151 22.1276 61.3932 22.5108C61.4713 22.894 61.664 23.246 61.9467 23.5222C62.2295 23.7985 62.5898 23.9867 62.982 24.063C63.3742 24.1393 63.7808 24.1003 64.1504 23.9509C64.5199 23.8015 64.8358 23.5485 65.0582 23.2238C65.2806 22.899 65.3994 22.5172 65.3998 22.1265C65.3972 21.9331 65.3652 21.7413 65.3048 21.5571L67.6117 19.3026C68.3639 19.8684 69.2387 20.2585 70.1691 20.443C71.0995 20.6274 72.0608 20.6014 72.9793 20.3668C73.8978 20.1323 74.7492 19.6954 75.4682 19.0898C76.1872 18.4841 76.7547 17.7257 77.1274 16.8727C77.5 16.0196 77.6678 15.0946 77.618 14.1683C77.5682 13.2421 77.302 12.3394 76.8399 11.5292C76.3777 10.719 75.7319 10.0229 74.9519 9.49424C74.1718 8.96556 73.2783 8.61833 72.3397 8.47915ZM71.3835 17.601C70.9571 17.6124 70.5328 17.5403 70.1354 17.3888C69.7381 17.2373 69.3759 17.0096 69.0702 16.719C68.7645 16.4285 68.5215 16.081 68.3556 15.6972C68.1897 15.3133 68.1042 14.9009 68.1042 14.4842C68.1042 14.0675 68.1897 13.6551 68.3556 13.2712C68.5215 12.8874 68.7645 12.5399 69.0702 12.2494C69.3759 11.9588 69.7381 11.7311 70.1354 11.5796C70.5328 11.4281 70.9571 11.356 71.3835 11.3675C72.2098 11.3957 72.9926 11.7362 73.5671 12.3171C74.1415 12.8981 74.4628 13.6741 74.4632 14.4819C74.4636 15.2897 74.1432 16.0661 73.5693 16.6476C72.9954 17.2291 72.213 17.5703 71.3867 17.5994" fill="#FF7A59"></path></g><defs><clipPath id="clip0_12517_107173"><rect width="85.3203" height="24.3772" fill="white" transform="translate(0.0546875 0.811279)"></rect></clipPath></defs></svg>
