<svg width="100%" height="100%" viewBox="0 0 100 26" fill="none" xmlns="http://www.w3.org/2000/svg" class="absolute inset-0 top-1/2 left-1/2 -translate-x-1/2 -translate-y-1/2 !fill-white !text-white [&amp;_*]:!fill-white group-data-[type=slider]:w-[230px] group-data-[type=slider]:h-[45px] group-data-[type=page]:w-[230px] group-data-[type=page]:h-[45px] group-data-[type=suggestion]:w-[200px] group-data-[type=suggestion]:h-[39px]"><path d="M51.7477 0.117188H46.5042V25.8829H51.7477V0.117188Z" fill="white"></path><path d="M0.620117 0.146484H6.1866V11.7033L16.597 0.146484H23.3462L13.7996 10.7426L23.9679 25.8839H17.2994L9.87606 15.0214L6.19064 19.1145V25.8839H0.620117V0.146484Z" fill="white"></path><path d="M44.4859 25.6409H41.8217C39.428 25.6409 38.2453 24.5955 38.2978 22.5368C37.5994 23.6065 36.7396 24.438 35.7426 24.9991C34.7213 25.5602 33.5104 25.8549 32.0572 25.8549C29.9339 25.8549 28.2103 25.3745 26.8944 24.4098C25.6026 23.4208 24.9568 22.0564 24.9568 20.2884C24.9568 18.2822 25.7116 16.7322 27.189 15.6584C28.6947 14.5605 30.8745 13.9994 33.7243 13.9994H37.5147V13.0911C37.5147 12.2354 37.1917 11.5653 36.5459 11.0567C35.9 10.5481 35.0402 10.2817 33.9382 10.2817C32.9695 10.2817 32.1904 10.4956 31.5728 10.8952C30.9552 11.3231 30.5757 11.8842 30.4708 12.5825H25.3887C25.5502 10.6571 26.4382 9.15948 27.9964 8.08977C29.5545 7.02007 31.6293 6.45898 34.2087 6.45898C36.7881 6.45898 38.9961 7.04833 40.4493 8.22298C41.9267 9.40167 42.6815 11.1132 42.6815 13.3333V19.9937C42.6815 20.4499 42.7905 20.7688 42.9762 20.9585C43.1659 21.1199 43.4889 21.2249 43.9167 21.2249H44.4819V25.6409H44.4859ZM33.6759 17.4547C32.5981 17.4547 31.7383 17.6686 31.1207 18.1248C30.5273 18.5527 30.2326 19.142 30.2326 19.917C30.2326 20.5871 30.4748 21.0957 30.9875 21.4954C31.5001 21.895 32.1985 22.0847 33.0583 22.0847C34.4307 22.0847 35.5044 21.7093 36.2875 20.9343C37.0666 20.1592 37.4985 19.1138 37.5228 17.8059V17.4587H33.6759V17.4547Z" fill="white"></path><path d="M58.7149 19.3517C58.7956 20.1792 59.1993 20.8493 59.9501 21.3862C60.7049 21.8948 61.6455 22.1612 62.7999 22.1612C63.9544 22.1612 64.79 21.9997 65.4359 21.6526C66.0817 21.2772 66.4046 20.7686 66.4046 20.1025C66.4046 19.6222 66.2432 19.2468 65.9485 19.0046C65.6538 18.7624 65.2219 18.5767 64.685 18.496C64.1482 18.3627 63.2601 18.2295 62.0209 18.0963C60.3255 17.8824 58.9288 17.5877 57.8268 17.2406C56.7248 16.8934 55.8085 16.3566 55.1627 15.6098C54.4886 14.859 54.1656 13.8983 54.1656 12.6671C54.1656 11.4359 54.4886 10.3662 55.1627 9.42973C55.861 8.46498 56.8298 7.74243 58.069 7.2096C59.3083 6.70099 60.7332 6.43457 62.3438 6.43457C64.9515 6.46283 67.0222 7.02392 68.6086 8.09362C70.2233 9.16332 71.0831 10.6609 71.2163 12.5864H66.2391C66.1584 11.8638 65.783 11.3027 65.0806 10.8466C64.4065 10.3904 63.5467 10.1523 62.473 10.1523C61.4759 10.1523 60.6727 10.338 60.051 10.7134C59.4576 11.0888 59.163 11.5691 59.163 12.1867C59.163 12.6429 59.3244 12.9618 59.6474 13.1757C59.9703 13.3896 60.4022 13.5511 60.9108 13.6561C61.4235 13.7651 62.3075 13.87 63.5185 13.979C66.1019 14.2737 68.0637 14.8348 69.4079 15.638C70.8045 16.4131 71.4787 17.7774 71.4787 19.7312C71.4787 20.9623 71.1032 22.032 70.3767 22.9685C69.6501 23.905 68.6571 24.6276 67.3371 25.1362C66.0454 25.6165 64.5397 25.887 62.8443 25.887C60.2084 25.887 58.0287 25.2976 56.3898 24.1472C54.7227 22.9685 53.8629 21.366 53.7539 19.3598H58.7028L58.7149 19.3517Z" fill="white"></path><path d="M89.9423 8.78379C88.4891 7.41941 86.6605 6.72512 84.4 6.72512C82.1395 6.72512 80.1778 7.58088 78.7528 9.2924V0.117188H73.5093V25.8829H78.7528V16.1708C78.7528 14.54 79.104 13.2806 79.8548 12.3723C80.6097 11.4641 81.6551 11.008 83.0034 11.008C84.3516 11.008 85.2639 11.4358 85.9097 12.2674C86.5556 13.0707 86.8785 14.2453 86.8785 15.8236V25.8829H92.1221V15.6097C92.1221 12.4248 91.3955 10.1522 89.9423 8.78782V8.78379Z" fill="white"></path><path d="M94.1362 6.94043H99.3798V25.856H94.1362V6.94043Z" fill="white"></path><path d="M98.6009 0.867997C98.1165 0.38764 97.4989 0.117188 96.7441 0.117188C95.9892 0.117188 95.3716 0.383604 94.863 0.867997C94.3786 1.34835 94.1082 1.9377 94.1082 2.66025C94.1082 3.3828 94.3786 3.99637 94.863 4.48076C95.3756 4.96112 96.0215 5.23157 96.7441 5.23157C97.4666 5.23157 98.1165 4.98937 98.6009 4.48076C99.0853 3.97215 99.3557 3.3828 99.3557 2.66025C99.3557 1.9377 99.0853 1.32413 98.6009 0.867997Z" fill="white"></path></svg>
