<svg width="21" height="20" viewBox="0 0 21 20" fill="none" xmlns="http://www.w3.org/2000/svg" aria-hidden="true" class="text-muted opacity-70 group-hover/social-link:opacity-100 transition-opacity duration-300"><path d="M11.4595 11.5714V18.889H8.06641V6.24428H11.2672L11.3238 9.39982H11.1202C11.452 8.3442 11.9534 7.52987 12.6244 6.95682C13.3031 6.37623 14.1777 6.08594 15.2484 6.08594C16.1231 6.08594 16.8846 6.27821 17.5331 6.66275C18.189 7.03976 18.6942 7.58642 19.0486 8.30273C19.4105 9.0115 19.5915 9.85977 19.5915 10.8475V18.889H16.1985V11.4356C16.1985 10.6515 15.9949 10.0369 15.5877 9.59209C15.1881 9.14722 14.6301 8.92479 13.9138 8.92479C13.4388 8.92479 13.0128 9.03035 12.6358 9.24148C12.2663 9.44506 11.976 9.74289 11.7649 10.135C11.5613 10.5271 11.4595 11.0059 11.4595 11.5714Z" fill="#939394"></path><path d="M1.77748 18.889V6.2442H5.17054V18.889H1.77748ZM3.47401 4.59292C2.96128 4.59292 2.52395 4.42326 2.16203 4.08396C1.8001 3.74465 1.61914 3.33372 1.61914 2.85115C1.61914 2.36858 1.8001 1.95765 2.16203 1.61834C2.52395 1.27903 2.96128 1.10938 3.47401 1.10938C3.98674 1.10938 4.42406 1.27903 4.78599 1.61834C5.15546 1.9501 5.34019 2.36104 5.34019 2.85115C5.34019 3.33372 5.15546 3.74465 4.78599 4.08396C4.42406 4.42326 3.98674 4.59292 3.47401 4.59292Z" fill="#939394"></path></svg>
