<svg viewBox="0 0 18 18" fill="none" xmlns="http://www.w3.org/2000/svg" class="shrink-0 select-none size-3 text-muted transition-colors duration-[250ms] ease-[ease]" aria-hidden="true"><path d="M9 3C9.414 3 9.75 2.664 9.75 2.25V1.25C9.75 0.836 9.414 0.5 9 0.5C8.586 0.5 8.25 0.836 8.25 1.25V2.25C8.25 2.664 8.586 3 9 3Z" fill="#919192"></path><path d="M13.773 4.977C13.965 4.977 14.157 4.904 14.303 4.757L15.01 4.05C15.303 3.757 15.303 3.282 15.01 2.989C14.717 2.696 14.242 2.696 13.949 2.989L13.242 3.696C12.949 3.989 12.949 4.464 13.242 4.757C13.388 4.903 13.581 4.977 13.773 4.977Z" fill="#919192"></path><path d="M16.75 8.25H15.75C15.336 8.25 15 8.586 15 9C15 9.414 15.336 9.75 15.75 9.75H16.75C17.164 9.75 17.5 9.414 17.5 9C17.5 8.586 17.164 8.25 16.75 8.25Z" fill="#919192"></path><path d="M14.303 13.243C14.01 12.95 13.535 12.95 13.242 13.243C12.949 13.536 12.949 14.011 13.242 14.304L13.949 15.011C14.095 15.157 14.287 15.231 14.479 15.231C14.671 15.231 14.863 15.158 15.009 15.011C15.302 14.718 15.302 14.243 15.009 13.95L14.302 13.243H14.303Z" fill="#919192"></path><path d="M9 15C8.586 15 8.25 15.336 8.25 15.75V16.75C8.25 17.164 8.586 17.5 9 17.5C9.414 17.5 9.75 17.164 9.75 16.75V15.75C9.75 15.336 9.414 15 9 15Z" fill="#919192"></path><path d="M3.697 13.243L2.99 13.95C2.697 14.243 2.697 14.718 2.99 15.011C3.136 15.157 3.328 15.231 3.52 15.231C3.712 15.231 3.904 15.158 4.05 15.011L4.757 14.304C5.05 14.011 5.05 13.536 4.757 13.243C4.464 12.95 3.99 12.95 3.697 13.243Z" fill="#919192"></path><path d="M3 9C3 8.586 2.664 8.25 2.25 8.25H1.25C0.836 8.25 0.5 8.586 0.5 9C0.5 9.414 0.836 9.75 1.25 9.75H2.25C2.664 9.75 3 9.414 3 9Z" fill="#919192"></path><path d="M3.697 4.757C3.843 4.903 4.035 4.977 4.227 4.977C4.419 4.977 4.611 4.904 4.757 4.757C5.05 4.464 5.05 3.989 4.757 3.696L4.05 2.989C3.757 2.696 3.282 2.696 2.989 2.989C2.696 3.282 2.696 3.757 2.989 4.05L3.697 4.757Z" fill="#919192"></path><path d="M9 14C11.7614 14 14 11.7614 14 9C14 6.23858 11.7614 4 9 4C6.23858 4 4 6.23858 4 9C4 11.7614 6.23858 14 9 14Z" fill="#919192"></path></svg>
