<svg width="100" height="33" viewBox="0 0 120 33" fill="#89898A" xmlns="http://www.w3.org/2000/svg" aria-hidden="true" class="group-focus-visible:outline-offset-4 group-focus-visible:outline-2 rounded-sm group-focus-visible:outline-brand h-6.5"><g clip-path="url(#clip0_10964_357263)"><path d="M28.5762 22.0908L28.5596 22.0381L39.0593 12.4259V7.79443H22.2143V12.4259H32.2758L32.2924 12.4702L21.8953 22.0908V26.7221H39.2284V22.0908H28.5762Z" fill="#89898A"></path><path d="M49.5704 7.35449C47.6274 7.35449 46.0439 7.64749 44.8199 8.23362C43.6797 8.74436 42.7194 9.58596 42.0633 10.6491C41.4356 11.7193 41.0415 12.9102 40.9068 14.1435L46.018 14.8618C46.2028 13.7728 46.5726 13.0009 47.1273 12.5461C47.7578 12.0704 48.5348 11.83 49.3237 11.8666C50.3611 11.8666 51.1136 12.1439 51.581 12.6986C52.0445 13.2533 52.2802 14.0214 52.2802 15.0337V15.5384H47.3658C44.8643 15.5384 43.0672 16.0931 41.9745 17.2024C40.8818 18.3117 40.3364 19.7761 40.3383 21.5953C40.3383 23.459 40.8837 24.8456 41.9745 25.7553C43.0653 26.6649 44.4372 27.1169 46.0901 27.1114C48.1405 27.1114 49.7178 26.406 50.8213 24.9954C51.4734 24.1285 51.9388 23.1361 52.1885 22.0806H52.3742L53.0787 26.712H57.71V14.9838C57.71 12.5599 57.0714 10.6824 55.7939 9.35124C54.5163 8.02004 52.4416 7.35449 49.5704 7.35449ZM51.1902 21.8116C50.4552 22.4245 49.4928 22.7296 48.2948 22.7296C47.3075 22.7296 46.6216 22.5567 46.2371 22.211C46.0497 22.0474 45.9006 21.8446 45.8005 21.6169C45.7003 21.3893 45.6515 21.1423 45.6574 20.8937C45.6465 20.6592 45.6834 20.4249 45.7659 20.2051C45.8484 19.9853 45.9747 19.7846 46.1372 19.6152C46.313 19.4503 46.5204 19.3229 46.7467 19.2404C46.9732 19.1579 47.2139 19.1222 47.4545 19.1354H52.2884V19.4543C52.2981 19.9051 52.2041 20.3522 52.014 20.7609C51.8235 21.1696 51.5418 21.5291 51.1902 21.8116Z" fill="#89898A"></path><path d="M85.7147 7.79443H80.2432V26.725H85.7147V7.79443Z" fill="#89898A"></path><path d="M118.021 7.79443C116.475 7.79443 115.256 8.33984 114.365 9.4307C113.726 10.2146 113.239 11.3729 112.907 12.9056H112.746L112.03 7.79443H107.357V26.7221H112.829V17.0156C112.829 15.7917 113.116 14.8534 113.689 14.2007C114.262 13.5481 115.319 13.2218 116.861 13.2218H118.938V7.79443H118.021Z" fill="#89898A"></path><path d="M101.927 8.41539C100.65 7.65549 99.0379 7.27648 97.0932 7.27833C94.0313 7.27833 91.6352 8.15008 89.9048 9.89355C88.1739 11.637 87.3089 14.0406 87.3089 17.1041C87.2648 18.9563 87.6692 20.7916 88.4876 22.4538C89.2367 23.935 90.4032 25.1642 91.8432 25.9897C93.2924 26.8273 95.0166 27.247 97.0156 27.2488C98.7441 27.2488 100.188 26.9826 101.347 26.4501C102.437 25.9719 103.386 25.2224 104.104 24.273C104.787 23.3412 105.295 22.2923 105.601 21.1781L100.887 19.858C100.688 20.5825 100.306 21.2436 99.7778 21.7771C99.2449 22.3096 98.3528 22.5758 97.1014 22.5758C95.6129 22.5758 94.5036 22.1496 93.7734 21.2973C93.2435 20.6817 92.9109 19.8025 92.764 18.6627H105.674C105.726 18.1302 105.754 17.6837 105.754 17.3232V16.1446C105.785 14.5611 105.458 12.9912 104.797 11.552C104.179 10.2409 103.178 9.14756 101.927 8.41539ZM96.9351 11.7905C99.1538 11.7905 100.411 12.8822 100.709 15.0657H92.8609C92.9855 14.3372 93.2876 13.6505 93.74 13.0662C94.4595 12.2139 95.5242 11.7886 96.9351 11.7905Z" fill="#89898A"></path><path d="M83.0389 0.165838C82.6272 0.151839 82.2171 0.220729 81.8326 0.368418C81.4481 0.516108 81.0975 0.739578 80.8008 1.02555C80.5089 1.31427 80.2796 1.66059 80.1283 2.04252C79.9771 2.42445 79.9068 2.83364 79.9218 3.24418C79.9072 3.65738 79.9776 4.06919 80.1293 4.45391C80.2806 4.83863 80.5099 5.18801 80.8023 5.48023C81.0946 5.77245 81.4442 6.00125 81.8292 6.15238C82.2142 6.30351 82.6258 6.37371 83.0389 6.35858C83.4495 6.3741 83.8588 6.30394 84.2408 6.15262C84.6229 6.00125 84.9691 5.77201 85.2575 5.47946C85.5441 5.18389 85.7671 4.83353 85.9145 4.44939C86.0619 4.06526 86.1298 3.6553 86.1148 3.24418C86.1337 2.83551 86.0672 2.42736 85.9194 2.04583C85.7715 1.6643 85.546 1.31776 85.2571 1.02834C84.9676 0.738923 84.6214 0.512981 84.2399 0.364948C83.8588 0.216916 83.4505 0.150053 83.0418 0.168614L83.0389 0.165838Z" fill="#89898A"></path><path d="M71.733 7.27832C69.8692 7.27832 68.3715 7.86348 67.2403 9.03381C66.4025 9.90091 65.7877 11.1951 65.396 12.9164H65.2214L64.5058 7.80525H59.8328V32.1658H65.3043V22.1321H65.5041C65.6709 22.8011 65.9051 23.4515 66.2028 24.0734C66.6658 25.0864 67.4251 25.9353 68.3802 26.5083C69.3703 27.0487 70.4859 27.3176 71.6137 27.2876C73.9046 27.2876 75.6486 26.3956 76.8466 24.6114C78.0447 22.8273 78.644 20.3378 78.644 17.143C78.644 14.0572 78.0641 11.6417 76.9053 9.89631C75.746 8.151 74.0219 7.27832 71.733 7.27832ZM72.2876 20.995C71.6496 21.9194 70.6513 22.3816 69.2922 22.3816C68.7322 22.4075 68.1737 22.2995 67.6636 22.0666C67.1531 21.8336 66.7056 21.4825 66.3584 21.0422C65.65 20.1529 65.2971 18.9354 65.299 17.3897V17.0292C65.299 15.4595 65.652 14.2578 66.3584 13.4239C67.0643 12.5901 68.0428 12.1778 69.2922 12.187C70.6755 12.187 71.6801 12.6262 72.307 13.5044C72.9339 14.3826 73.2471 15.6074 73.2471 17.179C73.251 18.8041 72.933 20.0761 72.2929 20.995H72.2876Z" fill="#89898A"></path><path d="M19.7796 22.0933H0.849152V26.7302H19.7796V22.0933Z" fill="#434344"></path></g><defs><clipPath id="clip0_10964_357263"><rect width="118.857" height="32" fill="white" transform="translate(0.571411 0.164062)"></rect></clipPath></defs></svg>
