<svg viewBox="0 0 18 18" fill="none" xmlns="http://www.w3.org/2000/svg" class="shrink-0 select-none text-brand translate-y-[1px]" aria-hidden="true"><path d="M5.00001 15.352C4.89601 15.352 4.79101 15.331 4.69001 15.285C1.84101 13.988 0.00100708 11.129 0.00100708 8C0.00100708 4.871 1.84101 2.012 4.68901 0.715004C5.06601 0.543004 5.51001 0.710004 5.68201 1.087C5.85301 1.464 5.68701 1.909 5.31001 2.08C2.99501 3.134 1.49901 5.457 1.49901 7.999C1.49901 10.541 2.99501 12.865 5.31001 13.918C5.68701 14.089 5.85301 14.534 5.68201 14.911C5.55601 15.187 5.28401 15.35 4.99901 15.35L5.00001 15.352Z" fill="#18E299"></path><path d="M11 15.352C10.715 15.352 10.443 15.189 10.317 14.913C10.146 14.536 10.312 14.091 10.689 13.92C13.004 12.866 14.5 10.543 14.5 8.00101C14.5 5.45901 13.004 3.13501 10.689 2.08201C10.312 1.91101 10.146 1.46601 10.317 1.08901C10.49 0.713011 10.935 0.546011 11.31 0.717011C14.159 2.01401 15.999 4.87301 15.999 8.00201C15.999 11.131 14.158 13.99 11.31 15.287C11.209 15.333 11.104 15.354 11 15.354V15.352Z" fill="#18E299"></path><path d="M8 12C10.2091 12 12 10.2091 12 8C12 5.79086 10.2091 4 8 4C5.79086 4 4 5.79086 4 8C4 10.2091 5.79086 12 8 12Z" fill="#18E299"></path></svg>
