<svg xmlns="http://www.w3.org/2000/svg" width="68" height="28" viewBox="0 0 68 28" fill="none" aria-hidden="true" class="group-focus-visible:outline-offset-4 group-focus-visible:outline-2 rounded-sm group-focus-visible:outline-brand h-8"><path d="M62.8872 19.5977C62.7054 19.5977 62.5802 19.4717 62.5802 19.2905V10.2888H59.5223C59.3405 10.2888 59.2151 10.1633 59.2151 9.98192V8.74023C59.2151 8.5584 59.3406 8.43261 59.5223 8.43261H67.662C67.8436 8.43261 67.9689 8.55854 67.9689 8.74023V9.98185C67.9689 10.1631 67.8436 10.2888 67.662 10.2888H64.6043V19.2903C64.6043 19.4717 64.4785 19.5977 64.2973 19.5977H62.8872ZM39.463 15.1035L37.8578 10.4984L36.2382 15.1035H39.463ZM43.0232 19.2339C43.0934 19.4158 42.9814 19.5977 42.7859 19.5977H41.3342C41.1247 19.5977 40.9989 19.5003 40.9289 19.304L40.1055 16.9323H35.5965L34.7717 19.304C34.7024 19.5003 34.5763 19.5977 34.3673 19.5977H32.9995C32.8178 19.5977 32.6919 19.4158 32.7618 19.2339L36.5452 8.71232C36.6152 8.51629 36.7408 8.43309 36.9498 8.43309H38.8207C39.0303 8.43309 39.1699 8.51636 39.2397 8.71232L43.0232 19.2339ZM53.8679 18.0901C54.761 18.0901 55.3617 17.6582 55.8504 16.9182L53.5891 14.4896C52.7231 14.9784 52.1644 15.4662 52.1644 16.4434C52.1645 17.4066 52.946 18.0901 53.8679 18.0901ZM54.4961 9.91189C53.7703 9.91189 53.3515 10.3729 53.3515 10.9868C53.3515 11.4613 53.6023 11.88 54.1749 12.4942C55.1661 11.9216 55.5851 11.5729 55.5851 10.959C55.5851 10.3864 55.2223 9.91189 54.4961 9.91189ZM60.6814 19.2068C60.8627 19.4024 60.7512 19.5977 60.5272 19.5977H58.7542C58.5169 19.5977 58.3913 19.5416 58.2378 19.3599L57.1768 18.1881C56.4649 19.1372 55.4728 19.8488 53.8258 19.8488C51.7875 19.8488 50.1815 18.6207 50.1815 16.5138C50.1815 14.8944 51.0476 14.0289 52.3601 13.3034C51.7174 12.5638 51.4248 11.7822 51.4248 11.0987C51.4248 9.3677 52.6393 8.18164 54.4679 8.18164C56.3387 8.18164 57.4838 9.28456 57.4838 10.9171C57.4838 12.3127 56.4788 13.0935 55.4174 13.6801L56.9813 15.3693L57.8607 13.8336C57.9723 13.6524 58.098 13.5824 58.321 13.5824H59.675C59.8987 13.5824 60.0244 13.7363 59.8852 13.9734L58.3212 16.6526L60.6814 19.2068ZM46.7485 19.5977C46.9299 19.5977 47.0562 19.4717 47.0562 19.2905V10.2888H50.1133C50.2947 10.2888 50.4203 10.1633 50.4203 9.98192V8.74023C50.4203 8.5584 50.2947 8.43261 50.1133 8.43261H41.9736C41.7918 8.43261 41.6665 8.55854 41.6665 8.74023V9.98185C41.6665 10.1631 41.7919 10.2888 41.9736 10.2888H45.0306V19.2903C45.0306 19.4717 45.1567 19.5977 45.338 19.5977H46.7485Z" fill="var(--color-text-main)"></path><path d="M5.4329 25.0269C7.8006 26.8597 10.7725 27.9609 13.9968 27.9609C17.5253 27.9609 20.742 26.6509 23.197 24.5005C23.2267 24.4742 23.2121 24.4568 23.1827 24.4742C22.0811 25.2099 18.9413 26.8159 13.9969 26.8159C9.70004 26.8159 6.98458 25.8572 5.4511 25.0013C5.42176 24.9868 5.41089 25.0088 5.4329 25.0269ZM14.9448 25.7405C18.3815 25.7405 22.1581 24.8036 24.4167 22.9491C25.0348 22.4439 25.6236 21.7714 26.1509 20.8676C26.4544 20.3476 26.7513 19.7298 26.9931 19.1225C27.0038 19.0928 26.9856 19.0784 26.9633 19.1117C24.8629 22.2027 18.7805 24.1307 12.5001 24.1307C8.06094 24.1307 3.28445 22.7111 1.41442 20.0006C1.39601 19.9755 1.37761 19.9862 1.38881 20.015C3.13088 23.7177 8.41591 25.7405 14.9448 25.7405ZM11.1898 19.5978C4.04212 19.5978 0.671824 16.2688 0.0604566 13.9971C0.0529172 13.9642 0.03125 13.9714 0.03125 14.0009C0.03125 14.7657 0.107799 15.7527 0.2395 16.4078C0.302328 16.7267 0.561858 17.2272 0.94236 17.6261C2.67315 19.4301 6.98825 21.9581 14.4613 21.9581C24.6431 21.9581 26.9711 18.5665 27.4465 17.4511C27.7864 16.6534 27.9626 15.2119 27.9626 14.001C27.9626 13.708 27.9552 13.4739 27.9441 13.2441C27.9441 13.2068 27.9225 13.2038 27.9151 13.2401C27.4063 15.9693 18.7071 19.5978 11.1898 19.5978ZM1.37761 8.01209C0.968034 8.82491 0.514041 10.1962 0.37908 10.9059C0.31992 11.21 0.345119 11.356 0.451757 11.583C1.30846 13.4006 5.64183 16.3089 15.7499 16.3089C21.9165 16.3089 26.7069 14.7939 27.483 12.0293C27.6259 11.5203 27.6336 10.983 27.45 10.259C27.2449 9.44987 26.8607 8.50636 26.5356 7.84385C26.5248 7.82225 26.5059 7.82544 26.5098 7.85098C26.6305 11.4771 16.5185 13.8141 11.4164 13.8141C5.88988 13.8141 1.27925 11.6122 1.27925 8.83184C1.27925 8.5647 1.33454 8.2975 1.40355 8.01943C1.41048 7.99402 1.38874 7.98981 1.37761 8.01209ZM23.2196 3.55999C23.2783 3.65196 23.3076 3.75011 23.3076 3.88222C23.3076 5.43329 18.5604 8.17721 11.0036 8.17721C5.4511 8.17721 4.41155 6.1174 4.41155 4.80745C4.41155 4.3392 4.59114 3.86007 4.98665 3.37348C5.00825 3.34455 4.98991 3.33341 4.96498 3.35494C4.24365 3.96624 3.58087 4.65408 2.99945 5.39661C2.72165 5.74777 2.5492 6.05885 2.5492 6.24523C2.5492 8.95988 9.35608 10.9281 15.7207 10.9281C22.5024 10.9281 25.529 8.71427 25.529 6.76871C25.529 6.07339 25.2583 5.66748 24.5659 4.88054C24.1165 4.36861 23.6913 3.95177 23.2414 3.54145C23.2196 3.52352 23.2045 3.53812 23.2196 3.55999ZM21.1406 2.00926C19.0476 0.75474 16.6172 0.0410156 13.9969 0.0410156C11.3584 0.0410156 8.85475 0.779667 6.75426 2.0674C6.12421 2.45517 5.76959 2.76592 5.76959 3.16537C5.76959 4.34287 8.52146 5.60893 13.4036 5.60893C18.2351 5.60893 21.9825 4.22217 21.9825 2.88729C21.9825 2.56867 21.7041 2.34575 21.1406 2.00926Z" fill="var(--color-text-main)"></path></svg>
