<svg width="22" height="20" viewBox="0 0 22 20" fill="none" xmlns="http://www.w3.org/2000/svg" aria-hidden="true" class="text-muted opacity-70 group-hover/social-link:opacity-100 transition-opacity duration-300"><mask id="mask0_9208_2837" style="mask-type:luminance" maskUnits="userSpaceOnUse" x="0" y="0" width="21" height="20"><path d="M20.6055 0H0.605469V20H20.6055V0Z" fill="white"></path></mask><g mask="url(#mask0_9208_2837)"><path d="M10.6055 1.46484C15.4399 1.46484 19.3555 5.38046 19.3555 10.2149C19.3543 13.9742 16.9561 17.3142 13.3949 18.5161C12.9574 18.6036 12.793 18.3299 12.793 18.1005C12.793 17.8049 12.8043 16.8642 12.8043 15.6942C12.8043 14.8742 12.5311 14.3492 12.2136 14.0755C14.1605 13.8567 16.2061 13.113 16.2061 9.75546C16.2061 8.79296 15.8668 8.01609 15.3093 7.40421C15.3968 7.18546 15.703 6.28859 15.2218 5.08546C15.2218 5.08546 14.4886 4.84484 12.8155 5.98234C12.1155 5.78546 11.3718 5.68734 10.628 5.68734C9.88422 5.68734 9.14047 5.78546 8.44047 5.98234C6.76735 4.85609 6.03422 5.08546 6.03422 5.08546C5.55297 6.28859 5.85922 7.18546 5.94672 7.40421C5.38922 8.01671 5.04985 8.80421 5.04985 9.75546C5.04985 13.1024 7.08422 13.8574 9.0311 14.0761C8.77922 14.2949 8.54985 14.678 8.47297 15.2461C7.96985 15.4761 6.71172 15.848 5.92485 14.5242C5.76047 14.2617 5.2686 13.6167 4.57985 13.6274C3.84672 13.6386 4.28485 14.043 4.59047 14.2067C4.96235 14.4142 5.3886 15.1911 5.48735 15.443C5.66235 15.9349 6.2311 16.8761 8.42922 16.4711C8.42922 17.2042 8.44047 17.893 8.44047 18.1005C8.44047 18.3305 8.2761 18.5924 7.8386 18.5161C4.26422 17.3261 1.8536 13.9817 1.85547 10.2142C1.85547 5.37984 5.7711 1.46484 10.6055 1.46484Z" fill="#939394"></path></g></svg>
