<svg width="120" height="26" viewBox="0 0 138 30" fill="#ffffff" xmlns="http://www.w3.org/2000/svg" class="max-md:h-[18px]"><path d="M138 13.328V10.901H134.986V7.12808L134.885 7.15932L132.054 8.02543L131.998 8.04238V10.9012H127.53V9.30858C127.53 8.56702 127.696 7.99953 128.023 7.62107C128.347 7.24715 128.811 7.05706 129.403 7.05706C129.829 7.05706 130.27 7.15731 130.713 7.35502L130.824 7.40468V4.84878L130.772 4.82956C130.358 4.68085 129.796 4.60596 129.098 4.60596C128.219 4.60596 127.42 4.79726 126.724 5.17638C126.027 5.55604 125.479 6.09803 125.095 6.78713C124.712 7.47543 124.518 8.27039 124.518 9.15013V10.901H122.419V13.328H124.518V23.5522H127.53V13.328H131.998V19.8253C131.998 22.5012 133.26 23.8573 135.75 23.8573C136.159 23.8573 136.589 23.8093 137.029 23.7155C137.476 23.6191 137.781 23.5229 137.96 23.4201L138 23.3966V20.9472L137.877 21.0282C137.714 21.1372 137.51 21.2262 137.272 21.2924C137.032 21.3598 136.832 21.3936 136.677 21.3936C136.093 21.3936 135.662 21.2365 135.394 20.9264C135.124 20.6135 134.986 20.0663 134.986 19.3008V13.328H138ZM115.691 21.394C114.598 21.394 113.736 21.0314 113.128 20.3172C112.517 19.5994 112.207 18.5761 112.207 17.2758C112.207 15.9343 112.517 14.8844 113.129 14.1539C113.737 13.4282 114.59 13.0599 115.667 13.0599C116.711 13.0599 117.543 13.4117 118.139 14.106C118.737 14.8039 119.041 15.8454 119.041 17.2025C119.041 18.5763 118.755 19.6316 118.192 20.3375C117.633 21.0381 116.791 21.394 115.691 21.394ZM115.825 10.5963C113.739 10.5963 112.082 11.2075 110.901 12.4131C109.72 13.6189 109.122 15.2874 109.122 17.3729C109.122 19.3537 109.706 20.9469 110.859 22.1077C112.011 23.2688 113.58 23.857 115.52 23.857C117.542 23.857 119.166 23.2372 120.347 22.0149C121.528 20.794 122.126 19.1412 122.126 17.1044C122.126 15.0927 121.565 13.4875 120.457 12.3345C119.349 11.181 117.791 10.5963 115.825 10.5963ZM104.264 10.5963C102.845 10.5963 101.672 10.9592 100.775 11.6749C99.8727 12.3949 99.4151 13.3391 99.4151 14.4816C99.4151 15.0756 99.5138 15.6031 99.7082 16.0506C99.9038 16.4996 100.206 16.8948 100.609 17.2266C101.008 17.5556 101.623 17.9003 102.44 18.251C103.126 18.5334 103.638 18.7722 103.963 18.9604C104.28 19.1449 104.506 19.3303 104.633 19.5109C104.757 19.6877 104.82 19.9296 104.82 20.2281C104.82 21.078 104.183 21.4916 102.873 21.4916C102.388 21.4916 101.833 21.3901 101.226 21.1902C100.624 20.9932 100.055 20.7048 99.5399 20.335L99.4148 20.2453V23.1457L99.4607 23.1671C99.887 23.3639 100.424 23.5298 101.058 23.6604C101.69 23.791 102.265 23.8575 102.764 23.8575C104.303 23.8575 105.543 23.4928 106.448 22.7729C107.359 22.048 107.82 21.0815 107.82 19.8994C107.82 19.0466 107.572 18.3154 107.082 17.7256C106.596 17.1406 105.752 16.6035 104.575 16.1288C103.637 15.7524 103.036 15.4399 102.788 15.2C102.549 14.9682 102.428 14.6405 102.428 14.2255C102.428 13.8576 102.577 13.5628 102.885 13.3241C103.195 13.0842 103.626 12.9622 104.167 12.9622C104.669 12.9622 105.182 13.0415 105.693 13.1969C106.203 13.3523 106.652 13.5604 107.026 13.815L107.149 13.8991V11.1477L107.102 11.1275C106.756 10.9794 106.301 10.8527 105.748 10.7499C105.198 10.6478 104.699 10.5963 104.264 10.5963ZM91.5614 21.394C90.4682 21.394 89.6058 21.0314 88.9984 20.3172C88.387 19.5994 88.0779 18.5763 88.0779 17.2758C88.0779 15.9343 88.3874 14.8844 88.9991 14.1539C89.6065 13.4282 90.4602 13.0599 91.5373 13.0599C92.5814 13.0599 93.413 13.4117 94.0088 14.106C94.6075 14.8039 94.9112 15.8454 94.9112 17.2025C94.9112 18.5763 94.6254 19.6316 94.062 20.3375C93.5026 21.0381 92.6617 21.394 91.5614 21.394ZM91.6957 10.5963C89.6091 10.5963 87.952 11.2075 86.7712 12.4131C85.5906 13.6189 84.9916 15.2874 84.9916 17.3729C84.9916 19.3545 85.5763 20.9469 86.7289 22.1077C87.8815 23.2688 89.4499 23.857 91.3905 23.857C93.4125 23.857 95.0368 23.2372 96.2177 22.0149C97.3982 20.794 97.9967 19.1412 97.9967 17.1044C97.9967 15.0927 97.4352 13.4875 96.3273 12.3345C95.2189 11.181 93.6605 10.5963 91.6957 10.5963ZM80.4186 13.092V10.901H77.4427V23.552H80.4186V17.0805C80.4186 15.9801 80.6681 15.0761 81.1604 14.3933C81.6465 13.7186 82.2942 13.3767 83.085 13.3767C83.3531 13.3767 83.654 13.4209 83.9798 13.5083C84.3024 13.5952 84.536 13.6896 84.6737 13.7889L84.7988 13.8796V10.8794L84.7506 10.8587C84.4735 10.741 84.0814 10.6816 83.5854 10.6816C82.8375 10.6816 82.1683 10.9219 81.5951 11.395C81.0919 11.8108 80.7283 12.381 80.4502 13.092H80.4186ZM72.1135 10.5963C70.7482 10.5963 69.5305 10.889 68.4947 11.4661C67.4568 12.0446 66.6541 12.8704 66.1079 13.9204C65.5642 14.968 65.2881 16.1916 65.2881 17.5562C65.2881 18.7515 65.5558 19.8484 66.0848 20.8152C66.6141 21.7836 67.3633 22.5411 68.3117 23.0666C69.2587 23.5913 70.3532 23.8574 71.5651 23.8574C72.9793 23.8574 74.1868 23.5747 75.1549 23.017L75.194 22.9946V20.2683L75.0689 20.3596C74.6304 20.679 74.1403 20.934 73.613 21.1177C73.0871 21.3012 72.6075 21.394 72.187 21.394C71.0193 21.394 70.0819 21.0286 69.4015 20.3083C68.7196 19.587 68.3739 18.5742 68.3739 17.2997C68.3739 16.0172 68.7344 14.9784 69.445 14.2119C70.1535 13.4476 71.0926 13.0599 72.2362 13.0599C73.2143 13.0599 74.1674 13.3911 75.0692 14.0453L75.194 14.1359V11.2632L75.1537 11.2405C74.8143 11.0506 74.3515 10.8937 73.7769 10.7748C73.2048 10.6561 72.6452 10.5963 72.1135 10.5963ZM63.2386 10.9012H60.2627V23.552H63.2386V10.9012ZM61.7811 5.51185C61.2913 5.51185 60.8641 5.67859 60.5132 6.00899C60.1607 6.34032 59.982 6.7575 59.982 7.24982C59.982 7.73441 60.1586 8.14397 60.5077 8.4665C60.8545 8.78809 61.283 8.95108 61.7812 8.95108C62.2793 8.95108 62.7094 8.78809 63.0604 8.46703C63.4136 8.14397 63.5928 7.73454 63.5928 7.24982C63.5928 6.77472 63.4184 6.36182 63.0749 6.02234C62.7317 5.68353 62.2963 5.51185 61.7811 5.51185ZM54.3561 9.96778V23.552H57.3931V5.89912H53.1898L47.847 19.0111L42.6622 5.89912H38.2877V23.5518H41.1417V9.96645H41.2397L46.7147 23.552H48.8685L54.2581 9.96778H54.3561Z" fill="var(--color-text-main)"></path><path d="M13.9993 13.9993H0V0H13.9993V13.9993Z" fill="#F1511B"></path><path d="M29.4562 13.9993H15.4572V0H29.4562V13.9993Z" fill="#80CC28"></path><path d="M13.9989 29.4616H0V15.4624H13.9989V29.4616Z" fill="#00ADEF"></path><path d="M29.4562 29.4616H15.4572V15.4624H29.4562V29.4616Z" fill="#FBBC09"></path></svg>
