<svg xmlns="http://www.w3.org/2000/svg" width="110" height="30" viewBox="0 0 98 27" fill="#009CDE" class="max-md:h-[19px]"><g clip-path="url(#clip0_8659_7178)"><path class="fill-[#003087] dark:fill-[#009CDE]" d="M36.4354 5.48104H31.0471C30.6783 5.48104 30.3648 5.74892 30.3072 6.11292L28.128 19.93C28.0846 20.2026 28.2958 20.4484 28.5723 20.4484H31.1448C31.5135 20.4484 31.8271 20.1805 31.8846 19.8157L32.4723 16.089C32.5291 15.7243 32.8434 15.4564 33.2114 15.4564H34.9171C38.4665 15.4564 40.515 13.7388 41.05 10.3352C41.2911 8.84608 41.0602 7.67608 40.3629 6.85668C39.5971 5.95692 38.2388 5.48104 36.4354 5.48104ZM37.057 10.5274C36.7623 12.4609 35.2851 12.4609 33.8566 12.4609H33.0435L33.614 8.85001C33.6479 8.63177 33.8369 8.47104 34.0575 8.47104H34.4302C35.4032 8.47104 36.3211 8.47105 36.7954 9.02571C37.0783 9.35662 37.1649 9.84826 37.057 10.5274Z"></path><path d="M52.5433 10.4649H49.963C49.7432 10.4649 49.5533 10.6256 49.5195 10.8439L49.4052 11.5656L49.2248 11.304C48.6662 10.4933 47.4205 10.2222 46.1773 10.2222C43.3259 10.2222 40.8906 12.3818 40.4163 15.4112C40.1697 16.9224 40.5203 18.3673 41.3775 19.375C42.1638 20.3016 43.2889 20.6876 44.6275 20.6876C46.925 20.6876 48.199 19.2104 48.199 19.2104L48.0839 19.9273C48.0406 20.2015 48.2518 20.4473 48.5267 20.4473H50.851C51.2205 20.4473 51.5325 20.1795 51.5908 19.8147L52.9853 10.9833C53.0294 10.7115 52.8191 10.4649 52.5433 10.4649ZM48.9467 15.4868C48.6977 16.961 47.5277 17.9505 46.0355 17.9505C45.2862 17.9505 44.6874 17.7102 44.3029 17.2548C43.9216 16.8026 43.7766 16.1589 43.8979 15.4419C44.1304 13.9804 45.3201 12.9585 46.7895 12.9585C47.5222 12.9585 48.1178 13.202 48.5102 13.6613C48.9033 14.1254 49.0593 14.773 48.9467 15.4868Z" class="fill-[#003087] dark:fill-[#009CDE]"></path><path d="M66.2849 10.4654H63.692C63.4446 10.4654 63.2122 10.5883 63.0719 10.794L59.4957 16.0617L57.9799 10.9996C57.8845 10.6829 57.5922 10.4654 57.2613 10.4654H54.7133C54.4037 10.4654 54.1886 10.768 54.2871 11.0595L57.1431 19.4409L54.458 23.2314C54.2469 23.53 54.4596 23.9405 54.8244 23.9405H57.4142C57.66 23.9405 57.89 23.8207 58.0295 23.619L66.6536 11.1706C66.86 10.8727 66.6481 10.4654 66.2849 10.4654Z" class="fill-[#003087] dark:fill-[#009CDE]"></path><path d="M74.8687 5.48104H69.4796C69.1117 5.48104 68.7981 5.74892 68.7406 6.11292L66.5613 19.93C66.518 20.2026 66.7291 20.4484 67.0041 20.4484H69.7696C70.0264 20.4484 70.2462 20.2609 70.2864 20.0056L70.9049 16.089C70.9616 15.7243 71.276 15.4564 71.6439 15.4564H73.3489C76.8991 15.4564 78.9468 13.7388 79.4825 10.3352C79.7244 8.84608 79.492 7.67608 78.7947 6.85668C78.0297 5.95692 76.6722 5.48104 74.8687 5.48104ZM75.4904 10.5274C75.1965 12.4609 73.7192 12.4609 72.29 12.4609H71.4777L72.0489 8.85001C72.0828 8.63177 72.2703 8.47104 72.4917 8.47104H72.8644C73.8366 8.47104 74.7553 8.47105 75.2296 9.02571C75.5124 9.35662 75.5983 9.84826 75.4904 10.5274Z" fill="#0070E0"></path><path d="M90.9755 10.4649H88.3968C88.1754 10.4649 87.9871 10.6256 87.954 10.8439L87.8398 11.5656L87.6585 11.304C87.0999 10.4933 85.8551 10.2222 84.6118 10.2222C81.7605 10.2222 79.3259 12.3818 78.8516 15.4112C78.6058 16.9224 78.9548 18.3673 79.8121 19.375C80.5999 20.3016 81.7234 20.6876 83.0621 20.6876C85.3595 20.6876 86.6335 19.2104 86.6335 19.2104L86.5185 19.9273C86.4751 20.2015 86.6863 20.4473 86.9628 20.4473H89.2863C89.6542 20.4473 89.9678 20.1795 90.0253 19.8147L91.4207 10.9833C91.4632 10.7115 91.2521 10.4649 90.9755 10.4649ZM87.3788 15.4868C87.1314 16.961 85.9599 17.9505 84.4676 17.9505C83.7199 17.9505 83.1196 17.7102 82.7351 17.2548C82.3537 16.8026 82.2104 16.1589 82.3301 15.4419C82.5641 13.9804 83.7522 12.9585 85.2216 12.9585C85.9544 12.9585 86.55 13.202 86.9424 13.6613C87.3371 14.1254 87.4931 14.773 87.3788 15.4868Z" fill="#0070E0"></path><path d="M94.0173 5.85981L91.8057 19.9298C91.7624 20.2024 91.9735 20.4482 92.2485 20.4482H94.4719C94.8414 20.4482 95.155 20.1803 95.2117 19.8155L97.3926 5.99927C97.4359 5.72666 97.2247 5.48006 96.9498 5.48006H94.4601C94.2403 5.48084 94.0512 5.64157 94.0173 5.85981Z" fill="#0070E0"></path><path d="M5.75134 23.1335L6.1634 20.5161L5.24552 20.4949H0.862549L3.90849 1.18159C3.91794 1.12329 3.94867 1.06892 3.99358 1.03032C4.03849 0.991713 4.096 0.97044 4.15588 0.97044H11.5462C13.9996 0.97044 15.6928 1.48099 16.5768 2.48868C16.9912 2.96141 17.2552 3.45541 17.3828 3.99905C17.5167 4.56947 17.5191 5.25098 17.3883 6.0822L17.3789 6.14286V6.67547L17.7933 6.91026C18.1423 7.09541 18.4196 7.30735 18.6324 7.55001C18.9869 7.9542 19.2162 8.46789 19.3131 9.07692C19.4132 9.70329 19.3801 10.4486 19.2162 11.2924C19.0271 12.2631 18.7214 13.1085 18.3085 13.8003C17.9288 14.4377 17.445 14.9663 16.8707 15.376C16.3223 15.7652 15.6707 16.0607 14.9341 16.2498C14.2202 16.4357 13.4064 16.5295 12.5137 16.5295H11.9385C11.5273 16.5295 11.1278 16.6776 10.8142 16.9431C10.4999 17.2141 10.2919 17.5844 10.2281 17.9894L10.1847 18.225L9.45673 22.838L9.42364 23.0074C9.41497 23.061 9.4 23.0878 9.37794 23.1059C9.35825 23.1224 9.32988 23.1335 9.30231 23.1335H5.75134Z" fill="var(--color-text-main)"></path><path d="M18.185 6.20467C18.1629 6.3457 18.1377 6.48988 18.1093 6.638C17.1347 11.6418 13.8004 13.3704 9.54195 13.3704H7.37371C6.85292 13.3704 6.41408 13.7486 6.33292 14.2623L5.2228 21.3028L4.90844 23.2985C4.85565 23.6357 5.11565 23.9398 5.45602 23.9398H9.30165C9.75705 23.9398 10.1439 23.6089 10.2156 23.1598L10.2534 22.9644L10.9775 18.3695L11.024 18.1174C11.0949 17.6667 11.4825 17.3358 11.9379 17.3358H12.513C16.2389 17.3358 19.1557 15.8231 20.0081 11.4456C20.3643 9.61697 20.1799 8.09006 19.2376 7.01618C18.9524 6.69236 18.5986 6.4237 18.185 6.20467Z" fill="#0070E0"></path><path class="fill-[#001C64] dark:fill-[#003087]" d="M17.1658 5.79765C17.0169 5.75432 16.8633 5.71492 16.7057 5.67947C16.5473 5.6448 16.385 5.61407 16.218 5.58728C15.6334 5.49274 14.9928 5.44783 14.3066 5.44783H8.5141C8.37149 5.44783 8.23598 5.48013 8.11465 5.53844C7.84755 5.66686 7.64901 5.91977 7.60095 6.22941L6.36871 14.0341L6.33325 14.2618C6.4144 13.7481 6.85325 13.37 7.37404 13.37H9.54228C13.8008 13.37 17.1351 11.6406 18.1097 6.63753C18.1388 6.48941 18.1633 6.34522 18.1853 6.20419C17.9387 6.07341 17.6716 5.96153 17.384 5.86619C17.3131 5.84256 17.2399 5.81971 17.1658 5.79765Z"></path><path d="M7.60127 6.22953C7.64933 5.91989 7.84787 5.66698 8.11497 5.53935C8.23709 5.48104 8.37181 5.44874 8.51442 5.44874H14.3069C14.9931 5.44874 15.6337 5.49365 16.2183 5.5882C16.3853 5.61498 16.5476 5.64571 16.706 5.68038C16.8636 5.71583 17.0172 5.75523 17.1661 5.79856C17.2402 5.82062 17.3134 5.84347 17.3851 5.86632C17.6727 5.96165 17.9398 6.07432 18.1864 6.20432C18.4764 4.35517 18.1841 3.09614 17.1842 1.95607C16.082 0.700984 14.0926 0.163651 11.547 0.163651H4.15666C3.63666 0.163651 3.19309 0.541832 3.11272 1.05632L0.0344813 20.5681C-0.0261854 20.9542 0.271633 21.3024 0.660845 21.3024H5.22345L6.36903 14.0343L7.60127 6.22953Z" class="fill-[#003087] dark:fill-[#009CDE]"></path></g><defs><clipPath id="clip0_8659_7178"><rect width="97.697" height="26" fill="white" transform="translate(0.0266113 0.163651)"></rect></clipPath></defs></svg>
