<svg xmlns="http://www.w3.org/2000/svg" width="135" height="35" viewBox="0 0 126 31" fill="#ffffff" class="max-md:h-[23px]"><path fill-rule="evenodd" clip-rule="evenodd" d="M11.9921 8.22386V0.163651H12.8255V8.26036L20.7562 0.322051V8.83036H24.1513V20.972H20.7562V29.5278L12.8255 21.5894V30.1636H11.9921V21.626L4.09706 29.5278V20.972H0.701172V8.83036H4.09619V0.322201L11.9921 8.22386ZM11.42 8.83036L4.92956 2.3351V8.83036H11.42ZM4.09619 9.66362H1.53455V20.1386H4.09631L4.09706 16.9945L11.4201 9.66537H4.09619V9.66362ZM11.9921 10.2719L4.93044 17.3395V27.5146L11.9921 20.447V10.2719ZM12.8437 10.2536V20.4288L19.923 27.5146L19.9229 17.3395L12.8437 10.2536ZM20.7562 20.1386V16.9945L13.434 9.66537H20.7562V9.66362H23.318V20.1386H20.7562ZM19.923 8.83036V2.33525L13.434 8.83036H19.923Z" fill="#20808D"></path><path d="M46.9163 11.0176C47.4105 10.0933 48.1013 9.38169 48.9922 8.88082C49.8813 8.38169 50.9247 8.13169 52.1214 8.13169C53.3181 8.13169 54.3089 8.37757 55.138 8.87007C55.968 9.36257 56.5889 10.0151 56.9997 10.8276C57.4105 11.6408 57.6164 12.5317 57.6164 13.5001V14.8417H48.3072C48.3822 16.0051 48.7747 16.9301 49.4847 17.6158C50.1947 18.3026 51.148 18.6451 52.3455 18.6451C53.3172 18.6451 54.0622 18.4476 54.5772 18.0526C55.0939 17.6576 55.4706 17.1101 55.7106 16.4083H57.8423C57.558 17.4967 56.9789 18.4408 56.1039 19.2383C55.2297 20.0367 53.9764 20.4351 52.3464 20.4351C51.1197 20.4351 50.0388 20.1851 49.1038 19.6858C48.1697 19.1867 47.4472 18.4742 46.9388 17.5492C46.4306 16.6242 46.1763 15.5358 46.1763 14.2826C46.1763 13.0292 46.4222 11.9426 46.9163 11.0176ZM55.3739 13.1642C55.3739 12.1501 55.1122 11.3567 54.5889 10.7817C54.0655 10.2076 53.243 9.92082 52.1205 9.92082C51.0738 9.92082 50.2172 10.2001 49.5522 10.7592C48.8863 11.3183 48.4788 12.1208 48.3297 13.1642H55.3739ZM60.413 8.46669V10.3233C60.413 10.4283 60.4656 10.4801 60.5706 10.4801C60.6306 10.4801 60.6748 10.4651 60.7056 10.4351C60.7364 10.4051 60.7655 10.3458 60.7948 10.2567C61.183 9.03419 62.148 8.42257 63.6889 8.42257H64.6757V10.4351H63.3964C62.3939 10.4351 61.6464 10.6733 61.1523 11.1508C60.6581 11.6283 60.4114 12.4108 60.4114 13.5001V20.0992H58.3923V8.46582L60.413 8.46669ZM76.5314 17.6492C76.0007 18.5808 75.3123 19.2783 74.4673 19.7401C73.6223 20.2017 72.7131 20.4333 71.7414 20.4333C69.8273 20.4333 68.4805 19.6733 67.703 18.1517C67.643 18.0333 67.568 17.9733 67.4789 17.9733C67.3898 17.9733 67.3439 18.0183 67.3439 18.1076V24.3483H65.3248V8.46757H67.3439V10.4583C67.3439 10.5476 67.3889 10.5926 67.4789 10.5926C67.5689 10.5926 67.643 10.5326 67.703 10.4142C68.4805 8.89257 69.8273 8.13257 71.7414 8.13257C72.7131 8.13257 73.6223 8.36419 74.4673 8.82582C75.3123 9.28757 75.9998 9.98507 76.5314 10.9176C77.0623 11.8492 77.3281 12.9726 77.3281 14.2833C77.3281 15.5942 77.0623 16.7167 76.5314 17.6492ZM74.1981 11.0726C73.4573 10.3042 72.4814 9.92007 71.2706 9.92007C70.0598 9.92007 69.083 10.3042 68.343 11.0726C67.6023 11.8408 67.3305 12.9108 67.3305 14.2826C67.3305 15.6542 67.6023 16.7251 68.343 17.4926C69.0839 18.2608 70.0598 18.6451 71.2706 18.6451C72.4814 18.6451 73.4581 18.2617 74.1981 17.4926C74.9389 16.7242 75.3089 15.6542 75.3089 14.2826C75.3089 12.9108 74.9389 11.8408 74.1981 11.0726ZM80.2581 3.99256V20.0983H78.239V3.99419H80.2581V3.99256ZM81.9206 11.0167C82.414 10.0926 83.1056 9.38082 83.9965 8.88007C84.8856 8.38082 85.929 8.13082 87.1249 8.13082C88.3206 8.13082 89.3133 8.37669 90.1424 8.86919C90.9724 9.36169 91.5933 10.0142 92.004 10.8267C92.4158 11.6401 92.6208 12.5308 92.6208 13.4992V14.8408H83.3115C83.3865 16.0042 83.779 16.9292 84.489 17.6151C85.199 18.3017 86.1524 18.6442 87.3499 18.6442C88.3215 18.6442 89.0656 18.4467 89.5815 18.0517C90.0981 17.6567 90.4749 17.1092 90.7149 16.4076H92.8465C92.5624 17.4958 91.9824 18.4401 91.1081 19.2376C90.234 20.0358 88.9806 20.4342 87.3506 20.4342C86.124 20.4342 85.0431 20.1842 84.1081 19.6851C83.174 19.1858 82.4515 18.4733 81.9431 17.5483C81.4348 16.6233 81.1807 15.5351 81.1807 14.2817C81.1807 13.0283 81.4265 11.9417 81.9206 11.0167ZM90.3781 13.1633C90.3781 12.1492 90.1165 11.3558 89.5931 10.7808C89.0699 10.2067 88.2474 9.92007 87.1249 9.92007C86.079 9.92007 85.2215 10.1992 84.5565 10.7583C83.8906 11.3176 83.484 12.1201 83.334 13.1633H90.3781ZM91.7224 19.6508L96.3432 13.9458L92.5524 8.91332V8.46582H94.7733L97.9374 12.8051L101.347 8.46582H103.612V8.93582L99.2607 14.2826L103.277 19.6508V20.0983H101.101L97.6682 15.4233L93.9899 20.0983H91.724V19.6508H91.7224ZM106.544 4.68006V7.19757H104.186V4.68006H106.544ZM106.422 20.0992H104.402V8.46669H106.422V20.0992ZM107.058 8.46669H109.255V5.33506H111.275V8.46669H113.586L114.154 10.1717H111.275V15.7367C111.275 16.4967 111.256 17.0601 111.218 17.4258C111.181 17.7917 111.162 18.0117 111.162 18.0858C111.162 18.1908 111.192 18.2726 111.252 18.3317C111.312 18.3917 111.393 18.4208 111.499 18.4208C111.573 18.4208 111.794 18.4026 112.161 18.3651C112.527 18.3276 113.092 18.3092 113.855 18.3092H114.64V20.0983H113.07C111.783 20.0983 110.826 19.7858 110.198 19.1583C109.571 18.5317 109.256 17.5783 109.256 16.2951V10.1708H107.06V8.46582L107.058 8.46669ZM114.195 8.46669H116.253L119.595 18.2258C119.641 18.3458 119.713 18.5033 119.942 18.5033C120.17 18.5033 120.241 18.3451 120.286 18.2258L123.629 8.46669H125.549V8.91419L121.368 21.4633C121.008 22.5376 120.504 23.2867 119.854 23.7117C119.203 24.1367 118.448 24.3492 117.19 24.3492H115.036V22.5601H116.675C117.198 22.5601 117.624 22.5783 117.953 22.6158C118.281 22.6533 118.491 22.6717 118.581 22.6717C118.835 22.6717 119.008 22.5601 119.098 22.3367L119.726 20.6367C119.801 20.4583 119.808 20.3242 119.749 20.2333C119.719 20.1733 119.683 20.1358 119.638 20.1217C119.593 20.1067 119.525 20.0992 119.435 20.0992H118.068L114.196 8.46757L114.195 8.46669ZM44.8931 17.6683C44.3622 18.6001 43.6738 19.2976 42.8288 19.7592C41.9838 20.2208 41.0747 20.4526 40.1031 20.4526C38.1888 20.4526 36.8422 19.6926 36.0647 18.1708C36.0047 18.0526 35.9297 17.9926 35.8404 17.9926C35.7513 17.9926 35.7055 18.0376 35.7055 18.1267V24.3676H33.6863V8.48669H35.7055V10.4776C35.7055 10.5667 35.7504 10.6117 35.8404 10.6117C35.9304 10.6117 36.0047 10.5517 36.0647 10.4333C36.8413 8.91169 38.1888 8.15169 40.1031 8.15169C41.0747 8.15169 41.9838 8.38332 42.8288 8.84507C43.6738 9.30669 44.3613 10.0042 44.8931 10.9358C45.4238 11.8676 45.6897 12.9908 45.6897 14.3026C45.6897 15.6142 45.4238 16.7367 44.8931 17.6683ZM42.5597 11.0917C41.8188 10.3233 40.8431 9.93919 39.6322 9.93919C38.4213 9.93919 37.4447 10.3233 36.7047 11.0917C35.9638 11.8601 35.6922 12.9301 35.6922 14.3017C35.6922 15.6733 35.9638 16.7442 36.7047 17.5117C37.4455 18.2801 38.4213 18.6642 39.6322 18.6642C40.8431 18.6642 41.8197 18.2808 42.5597 17.5117C43.3004 16.7433 43.6706 15.6733 43.6706 14.3017C43.6706 12.9301 43.3004 11.8601 42.5597 11.0917Z" fill="var(--color-text-main)"></path></svg>
