<svg xmlns="http://www.w3.org/2000/svg" xmlns:xlink="http://www.w3.org/1999/xlink" width="2000" zoomAndPan="magnify" viewBox="0 0 1500 1499.999933" height="2000" preserveAspectRatio="xMidYMid meet" version="1.0"><defs><clipPath id="aaf67c720e"><path d="M 979.707031 1.15625 L 1339.382812 1.15625 L 1339.382812 360.832031 L 979.707031 360.832031 Z M 979.707031 1.15625 " clip-rule="nonzero"/></clipPath><clipPath id="021b689cf2"><path d="M 979.707031 360.832031 L 979.707031 180.992188 L 1159.542969 1.15625 L 1339.382812 180.992188 L 1339.382812 360.832031 L 1159.542969 180.992188 Z M 979.707031 360.832031 " clip-rule="nonzero"/></clipPath><clipPath id="85e70500cf"><path d="M 0.707031 0.15625 L 360.382812 0.15625 L 360.382812 359.832031 L 0.707031 359.832031 Z M 0.707031 0.15625 " clip-rule="nonzero"/></clipPath><clipPath id="9085ce4257"><path d="M 0.707031 359.832031 L 0.707031 179.992188 L 180.542969 0.15625 L 360.382812 179.992188 L 360.382812 359.832031 L 180.542969 179.992188 Z M 0.707031 359.832031 " clip-rule="nonzero"/></clipPath><clipPath id="0c46f28fae"><rect x="0" width="361" y="0" height="360"/></clipPath><clipPath id="c63784430a"><path d="M 602.121094 1 L 775.042969 1 L 775.042969 360.835938 L 602.121094 360.835938 Z M 602.121094 1 " clip-rule="nonzero"/></clipPath><clipPath id="cb18e7b516"><path d="M 764.65625 240.878906 C 770.925781 222.4375 775.042969 201.472656 775.042969 180.898438 C 775.042969 160.324219 771.511719 140.523438 765.242188 122.28125 C 765.046875 121.890625 765.046875 121.503906 764.851562 121.113281 C 739.769531 52.59375 673.53125 2.128906 602.121094 1.15625 L 602.121094 360.835938 C 673.925781 359.863281 740.160156 310.171875 764.65625 240.878906 Z M 764.65625 240.878906 " clip-rule="nonzero"/></clipPath><clipPath id="1e0af393df"><path d="M 0.121094 0 L 173.042969 0 L 173.042969 359.835938 L 0.121094 359.835938 Z M 0.121094 0 " clip-rule="nonzero"/></clipPath><clipPath id="1efa385c84"><path d="M 162.65625 239.878906 C 168.925781 221.4375 173.042969 200.472656 173.042969 179.898438 C 173.042969 159.324219 169.511719 139.523438 163.242188 121.28125 C 163.046875 120.890625 163.046875 120.503906 162.851562 120.113281 C 137.769531 51.59375 71.53125 1.128906 0.121094 0.15625 L 0.121094 359.835938 C 71.925781 358.863281 138.160156 309.171875 162.65625 239.878906 Z M 162.65625 239.878906 " clip-rule="nonzero"/></clipPath><clipPath id="33213a47d9"><rect x="0" width="174" y="0" height="360"/></clipPath><clipPath id="2aae9cd0a3"><path d="M 814.042969 1.160156 L 940.703125 1.160156 L 940.703125 360.839844 L 814.042969 360.839844 Z M 814.042969 1.160156 " clip-rule="nonzero"/></clipPath><clipPath id="1d8155d33e"><path d="M 0.0429688 0.160156 L 126.703125 0.160156 L 126.703125 359.839844 L 0.0429688 359.839844 Z M 0.0429688 0.160156 " clip-rule="nonzero"/></clipPath><clipPath id="f39e17828c"><rect x="0" width="127" y="0" height="360"/></clipPath><clipPath id="da7220192a"><path d="M 0.617188 1.160156 L 127.28125 1.160156 L 127.28125 360.839844 L 0.617188 360.839844 Z M 0.617188 1.160156 " clip-rule="nonzero"/></clipPath><clipPath id="f5403b6732"><path d="M 0.617188 0.160156 L 127.28125 0.160156 L 127.28125 359.839844 L 0.617188 359.839844 Z M 0.617188 0.160156 " clip-rule="nonzero"/></clipPath><clipPath id="231e3b9eb1"><rect x="0" width="128" y="0" height="360"/></clipPath><clipPath id="b700bbac07"><path d="M 166.28125 1.160156 L 383.023438 1.160156 L 383.023438 360.992188 L 166.28125 360.992188 Z M 166.28125 1.160156 " clip-rule="nonzero"/></clipPath><clipPath id="9eb49ad1da"><path d="M 256.363281 1.160156 L 383.023438 1.160156 L 292.941406 360.839844 L 166.28125 360.839844 Z M 256.363281 1.160156 " clip-rule="nonzero"/></clipPath><clipPath id="b753291494"><path d="M 0.28125 0.160156 L 217.023438 0.160156 L 217.023438 359.992188 L 0.28125 359.992188 Z M 0.28125 0.160156 " clip-rule="nonzero"/></clipPath><clipPath id="c5e0883676"><path d="M 90.363281 0.160156 L 217.023438 0.160156 L 126.941406 359.839844 L 0.28125 359.839844 Z M 90.363281 0.160156 " clip-rule="nonzero"/></clipPath><clipPath id="5106d825c0"><rect x="0" width="218" y="0" height="360"/></clipPath><clipPath id="324ce9f159"><path d="M 346.375 1.160156 L 563.121094 1.160156 L 563.121094 360.992188 L 346.375 360.992188 Z M 346.375 1.160156 " clip-rule="nonzero"/></clipPath><clipPath id="49f2956bbe"><path d="M 436.457031 1.160156 L 563.121094 1.160156 L 473.039062 360.839844 L 346.375 360.839844 Z M 436.457031 1.160156 " clip-rule="nonzero"/></clipPath><clipPath id="9bff42501a"><path d="M 0.375 0.160156 L 217.121094 0.160156 L 217.121094 359.992188 L 0.375 359.992188 Z M 0.375 0.160156 " clip-rule="nonzero"/></clipPath><clipPath id="b83f43622d"><path d="M 90.457031 0.160156 L 217.121094 0.160156 L 127.039062 359.839844 L 0.375 359.839844 Z M 90.457031 0.160156 " clip-rule="nonzero"/></clipPath><clipPath id="442f03b84d"><rect x="0" width="218" y="0" height="360"/></clipPath><clipPath id="a0a3e636c9"><path d="M 256.308594 1.160156 L 473.089844 1.160156 L 473.089844 361 L 256.308594 361 Z M 256.308594 1.160156 " clip-rule="nonzero"/></clipPath><clipPath id="02ab5384ad"><path d="M 383.007812 1.160156 L 256.308594 1.160156 L 346.390625 360.839844 L 473.089844 360.839844 Z M 383.007812 1.160156 " clip-rule="nonzero"/></clipPath><clipPath id="cdb88271bd"><path d="M 0.308594 0.160156 L 217.089844 0.160156 L 217.089844 360 L 0.308594 360 Z M 0.308594 0.160156 " clip-rule="nonzero"/></clipPath><clipPath id="9b3acdade2"><path d="M 127.007812 0.160156 L 0.308594 0.160156 L 90.390625 359.839844 L 217.089844 359.839844 Z M 127.007812 0.160156 " clip-rule="nonzero"/></clipPath><clipPath id="012dc2e425"><rect x="0" width="218" y="0" height="360"/></clipPath><clipPath id="1e1534f04e"><rect x="0" width="1340" y="0" height="362"/></clipPath></defs><g transform="matrix(1, 0, 0, 1, 80, 569)"><g clip-path="url(#1e1534f04e)"><g clip-path="url(#aaf67c720e)"><g clip-path="url(#021b689cf2)"><g transform="matrix(1, 0, 0, 1, 979, 1)"><g clip-path="url(#0c46f28fae)"><g clip-path="url(#85e70500cf)"><g clip-path="url(#9085ce4257)"><path fill="#000000" d="M 0.707031 359.832031 L 0.707031 0.15625 L 360.382812 0.15625 L 360.382812 359.832031 Z M 0.707031 359.832031 " fill-opacity="1" fill-rule="nonzero"/></g></g></g></g></g></g><g clip-path="url(#c63784430a)"><g clip-path="url(#cb18e7b516)"><g transform="matrix(1, 0, 0, 1, 602, 1)"><g clip-path="url(#33213a47d9)"><g clip-path="url(#1e0af393df)"><g clip-path="url(#1efa385c84)"><path fill="#000000" d="M 0.121094 359.835938 L 0.121094 0.480469 L 173.042969 0.480469 L 173.042969 359.835938 Z M 0.121094 359.835938 " fill-opacity="1" fill-rule="nonzero"/></g></g></g></g></g></g><g clip-path="url(#2aae9cd0a3)"><g transform="matrix(1, 0, 0, 1, 814, 1)"><g clip-path="url(#f39e17828c)"><g clip-path="url(#1d8155d33e)"><path fill="#000000" d="M 0.0429688 0.160156 L 126.703125 0.160156 L 126.703125 359.863281 L 0.0429688 359.863281 Z M 0.0429688 0.160156 " fill-opacity="1" fill-rule="nonzero"/></g></g></g></g><g clip-path="url(#da7220192a)"><g transform="matrix(1, 0, 0, 1, 0.000000000000014211, 1)"><g clip-path="url(#231e3b9eb1)"><g clip-path="url(#f5403b6732)"><path fill="#000000" d="M 0.617188 0.160156 L 127.28125 0.160156 L 127.28125 359.863281 L 0.617188 359.863281 Z M 0.617188 0.160156 " fill-opacity="1" fill-rule="nonzero"/></g></g></g></g><g clip-path="url(#b700bbac07)"><g clip-path="url(#9eb49ad1da)"><g transform="matrix(1, 0, 0, 1, 166, 1)"><g clip-path="url(#5106d825c0)"><g clip-path="url(#b753291494)"><g clip-path="url(#c5e0883676)"><path fill="#000000" d="M 0.28125 0.160156 L 217.023438 0.160156 L 217.023438 359.992188 L 0.28125 359.992188 Z M 0.28125 0.160156 " fill-opacity="1" fill-rule="nonzero"/></g></g></g></g></g></g><g clip-path="url(#324ce9f159)"><g clip-path="url(#49f2956bbe)"><g transform="matrix(1, 0, 0, 1, 346, 1)"><g clip-path="url(#442f03b84d)"><g clip-path="url(#9bff42501a)"><g clip-path="url(#b83f43622d)"><path fill="#000000" d="M 0.375 0.160156 L 217.121094 0.160156 L 217.121094 359.992188 L 0.375 359.992188 Z M 0.375 0.160156 " fill-opacity="1" fill-rule="nonzero"/></g></g></g></g></g></g><g clip-path="url(#a0a3e636c9)"><g clip-path="url(#02ab5384ad)"><g transform="matrix(1, 0, 0, 1, 256, 1)"><g clip-path="url(#012dc2e425)"><g clip-path="url(#cdb88271bd)"><g clip-path="url(#9b3acdade2)"><path fill="#000000" d="M 0.308594 0.160156 L 217.089844 0.160156 L 217.089844 360.050781 L 0.308594 360.050781 Z M 0.308594 0.160156 " fill-opacity="1" fill-rule="nonzero"/></g></g></g></g></g></g></g></g></svg>