<svg xmlns="http://www.w3.org/2000/svg" xmlns:xlink="http://www.w3.org/1999/xlink" width="2000" zoomAndPan="magnify" viewBox="0 0 1500 1499.999933" height="2000" preserveAspectRatio="xMidYMid meet" version="1.0"><defs><clipPath id="ac445ade28"><path d="M 149.992188 525.40625 L 599.179688 525.40625 L 599.179688 974.59375 L 149.992188 974.59375 Z M 149.992188 525.40625 " clip-rule="nonzero"/></clipPath><clipPath id="9f289b98a8"><path d="M 599.179688 525.40625 L 599.179688 750 L 374.585938 974.59375 L 149.992188 750 L 149.992188 525.40625 L 374.585938 750 Z M 599.179688 525.40625 " clip-rule="nonzero"/></clipPath><clipPath id="05f4e4ada0"><path d="M 0.992188 0.40625 L 450.179688 0.40625 L 450.179688 449.59375 L 0.992188 449.59375 Z M 0.992188 0.40625 " clip-rule="nonzero"/></clipPath><clipPath id="2a61e1eb11"><path d="M 450.179688 0.40625 L 450.179688 225 L 225.585938 449.59375 L 0.992188 225 L 0.992188 0.40625 L 225.585938 225 Z M 450.179688 0.40625 " clip-rule="nonzero"/></clipPath><clipPath id="70d5ce222c"><rect x="0" width="451" y="0" height="450"/></clipPath><clipPath id="89d510219f"><path d="M 684.875 525.410156 L 900.828125 525.410156 L 900.828125 975 L 684.875 975 Z M 684.875 525.410156 " clip-rule="nonzero"/></clipPath><clipPath id="d8469c5ad0"><path d="M 697.84375 675.21875 C 690.011719 698.246094 684.875 724.429688 684.875 750.125 C 684.875 775.820312 689.277344 800.546875 697.109375 823.332031 C 697.355469 823.816406 697.355469 824.300781 697.597656 824.785156 C 728.925781 910.359375 811.644531 973.382812 900.828125 974.597656 L 900.828125 525.410156 C 811.15625 526.621094 728.433594 588.679688 697.84375 675.21875 Z M 697.84375 675.21875 " clip-rule="nonzero"/></clipPath><clipPath id="a3e1b0aec0"><path d="M 0.875 0.410156 L 216.828125 0.410156 L 216.828125 449.640625 L 0.875 449.640625 Z M 0.875 0.410156 " clip-rule="nonzero"/></clipPath><clipPath id="25f1b08ff2"><path d="M 13.84375 150.21875 C 6.011719 173.246094 0.875 199.429688 0.875 225.125 C 0.875 250.820312 5.277344 275.546875 13.109375 298.332031 C 13.355469 298.816406 13.355469 299.300781 13.597656 299.785156 C 44.925781 385.359375 127.644531 448.382812 216.828125 449.597656 L 216.828125 0.410156 C 127.15625 1.621094 44.433594 63.679688 13.84375 150.21875 Z M 13.84375 150.21875 " clip-rule="nonzero"/></clipPath><clipPath id="7959f4c9f5"><rect x="0" width="217" y="0" height="450"/></clipPath><clipPath id="9a7ec3c409"><path d="M 1060.230469 525.410156 L 1276.183594 525.410156 L 1276.183594 975 L 1060.230469 975 Z M 1060.230469 525.410156 " clip-rule="nonzero"/></clipPath><clipPath id="cceb93d904"><path d="M 1073.199219 675.21875 C 1065.367188 698.246094 1060.230469 724.429688 1060.230469 750.125 C 1060.230469 775.820312 1064.632812 800.546875 1072.464844 823.332031 C 1072.710938 823.816406 1072.710938 824.300781 1072.953125 824.785156 C 1104.28125 910.359375 1187 973.382812 1276.183594 974.597656 L 1276.183594 525.410156 C 1186.511719 526.621094 1103.789062 588.679688 1073.199219 675.21875 Z M 1073.199219 675.21875 " clip-rule="nonzero"/></clipPath><clipPath id="ab1c876236"><path d="M 0.230469 0.410156 L 216.183594 0.410156 L 216.183594 449.640625 L 0.230469 449.640625 Z M 0.230469 0.410156 " clip-rule="nonzero"/></clipPath><clipPath id="d348ab7b73"><path d="M 13.199219 150.21875 C 5.367188 173.246094 0.230469 199.429688 0.230469 225.125 C 0.230469 250.820312 4.632812 275.546875 12.464844 298.332031 C 12.710938 298.816406 12.710938 299.300781 12.953125 299.785156 C 44.28125 385.359375 127 448.382812 216.183594 449.597656 L 216.183594 0.410156 C 126.511719 1.621094 43.789062 63.679688 13.199219 150.21875 Z M 13.199219 150.21875 " clip-rule="nonzero"/></clipPath><clipPath id="56ce9c8614"><rect x="0" width="217" y="0" height="450"/></clipPath><clipPath id="c2af797363"><path d="M 1276.191406 731.445312 L 1350 731.445312 L 1350 768.554688 L 1276.191406 768.554688 Z M 1276.191406 731.445312 " clip-rule="nonzero"/></clipPath><clipPath id="31f0136689"><path d="M 0.191406 0.445312 L 74 0.445312 L 74 37.554688 L 0.191406 37.554688 Z M 0.191406 0.445312 " clip-rule="nonzero"/></clipPath><clipPath id="783becc206"><rect x="0" width="74" y="0" height="38"/></clipPath><clipPath id="6a368613cf"><path d="M 1202.378906 731.445312 L 1276.191406 731.445312 L 1276.191406 768.554688 L 1202.378906 768.554688 Z M 1202.378906 731.445312 " clip-rule="nonzero"/></clipPath><clipPath id="db4358b6e0"><path d="M 0.378906 0.445312 L 74.191406 0.445312 L 74.191406 37.554688 L 0.378906 37.554688 Z M 0.378906 0.445312 " clip-rule="nonzero"/></clipPath><clipPath id="3ebcf70b35"><rect x="0" width="75" y="0" height="38"/></clipPath><clipPath id="1e7ebac4ac"><path d="M 900.734375 726.027344 L 974.542969 726.027344 L 974.542969 763.136719 L 900.734375 763.136719 Z M 900.734375 726.027344 " clip-rule="nonzero"/></clipPath><clipPath id="2d59054cfa"><path d="M 0.734375 0.0273438 L 74.542969 0.0273438 L 74.542969 37.136719 L 0.734375 37.136719 Z M 0.734375 0.0273438 " clip-rule="nonzero"/></clipPath><clipPath id="dc27bd0fe4"><rect x="0" width="75" y="0" height="38"/></clipPath><clipPath id="36860e5e4d"><path d="M 826.921875 726.027344 L 900.734375 726.027344 L 900.734375 763.136719 L 826.921875 763.136719 Z M 826.921875 726.027344 " clip-rule="nonzero"/></clipPath><clipPath id="a031592f51"><path d="M 0.921875 0.0273438 L 74.734375 0.0273438 L 74.734375 37.136719 L 0.921875 37.136719 Z M 0.921875 0.0273438 " clip-rule="nonzero"/></clipPath><clipPath id="4dba965147"><rect x="0" width="75" y="0" height="38"/></clipPath></defs><g clip-path="url(#ac445ade28)"><g clip-path="url(#9f289b98a8)"><g transform="matrix(1, 0, 0, 1, 149, 525)"><g clip-path="url(#70d5ce222c)"><g clip-path="url(#05f4e4ada0)"><g clip-path="url(#2a61e1eb11)"><path fill="#000000" d="M 450.179688 0.40625 L 450.179688 449.59375 L 0.992188 449.59375 L 0.992188 0.40625 Z M 450.179688 0.40625 " fill-opacity="1" fill-rule="nonzero"/></g></g></g></g></g></g><g clip-path="url(#89d510219f)"><g clip-path="url(#d8469c5ad0)"><g transform="matrix(1, 0, 0, 1, 684, 525)"><g clip-path="url(#7959f4c9f5)"><g clip-path="url(#a3e1b0aec0)"><g clip-path="url(#25f1b08ff2)"><path fill="#000000" d="M 216.828125 0.410156 L 216.828125 449.191406 L 0.875 449.191406 L 0.875 0.410156 Z M 216.828125 0.410156 " fill-opacity="1" fill-rule="nonzero"/></g></g></g></g></g></g><g clip-path="url(#9a7ec3c409)"><g clip-path="url(#cceb93d904)"><g transform="matrix(1, 0, 0, 1, 1060, 525)"><g clip-path="url(#56ce9c8614)"><g clip-path="url(#ab1c876236)"><g clip-path="url(#d348ab7b73)"><path fill="#000000" d="M 216.183594 0.410156 L 216.183594 449.191406 L 0.230469 449.191406 L 0.230469 0.410156 Z M 216.183594 0.410156 " fill-opacity="1" fill-rule="nonzero"/></g></g></g></g></g></g><g clip-path="url(#c2af797363)"><g transform="matrix(1, 0, 0, 1, 1276, 731)"><g clip-path="url(#783becc206)"><g clip-path="url(#31f0136689)"><path fill="#000000" d="M 0.191406 0.445312 L 73.972656 0.445312 L 73.972656 37.554688 L 0.191406 37.554688 Z M 0.191406 0.445312 " fill-opacity="1" fill-rule="nonzero"/></g></g></g></g><g clip-path="url(#6a368613cf)"><g transform="matrix(1, 0, 0, 1, 1202, 731)"><g clip-path="url(#3ebcf70b35)"><g clip-path="url(#db4358b6e0)"><path fill="#f8f7f3" d="M 0.378906 0.445312 L 74.164062 0.445312 L 74.164062 37.554688 L 0.378906 37.554688 Z M 0.378906 0.445312 " fill-opacity="1" fill-rule="nonzero"/></g></g></g></g><g clip-path="url(#1e7ebac4ac)"><g transform="matrix(1, 0, 0, 1, 900, 726)"><g clip-path="url(#dc27bd0fe4)"><g clip-path="url(#2d59054cfa)"><path fill="#000000" d="M 0.734375 0.0273438 L 74.515625 0.0273438 L 74.515625 37.136719 L 0.734375 37.136719 Z M 0.734375 0.0273438 " fill-opacity="1" fill-rule="nonzero"/></g></g></g></g><g clip-path="url(#36860e5e4d)"><g transform="matrix(1, 0, 0, 1, 826, 726)"><g clip-path="url(#4dba965147)"><g clip-path="url(#a031592f51)"><path fill="#f8f7f3" d="M 0.921875 0.0273438 L 74.707031 0.0273438 L 74.707031 37.136719 L 0.921875 37.136719 Z M 0.921875 0.0273438 " fill-opacity="1" fill-rule="nonzero"/></g></g></g></g></svg>